# xmcd
#
# Track frame offsets: 
#        150
#        28719
#        64655
#        90411
#        115150
#        143054
#        169497
#        202367
#        240286
#        278294
#
# Disc length: 4300 seconds
#
# Revision: 0
# Processed by: cddbd v1.5.2PL0 Copyright (c) Steve Scherf et al.
# Submitted via: ExactAudioCopy v0.99pb5
#
DISCID=8410ca0a
DTITLE=Various Artist - Streetwise
DYEAR=2010
DGENRE=Blues
TTITLE0=Papa Grows Funk - Stanky
TTITLE1=The Jimmy Herring Band - Scapegoat Blues
TTITLE2=Irvin Mayfield - A Love Supreme
TTITLE3=Luther Kent and Trick Bag - Let's Straighten It Out
TTITLE4=Thelonious Monk Institute/NOCCA Jazz Septet - Trane's Blues
TTITLE5=Nigel Hall - Can't Hide Love
TTITLE6=Rebecca Barry - St. Thomas
TTITLE7=The Lee Boys - I'm Not Tired
TTITLE8=Guitar Shorty - Old School
TTITLE9=Soulive - Backwards Jack
EXTD=
EXTT0=
EXTT1=
EXTT2=
EXTT3=
EXTT4=
EXTT5=
EXTT6=
EXTT7=
EXTT8=
EXTT9=
PLAYORDER=
